<mxfile host="app.diagrams.net" modified="2024-05-02T12:11:19.106Z" agent="Mozilla/5.0 (Macintosh; Intel Mac OS X 10_15_7) AppleWebKit/605.1.15 (KHTML, like Gecko) Version/17.4.1 Safari/605.1.15" etag="yE3Pegwvwo582JXiLrE7" version="24.3.1" type="device">
  <diagram name="Seite-1" id="jATRf-P5bfE0bthLOh6H">
    <mxGraphModel dx="1781" dy="624" grid="1" gridSize="10" guides="1" tooltips="1" connect="1" arrows="1" fold="1" page="1" pageScale="1" pageWidth="827" pageHeight="1169" math="0" shadow="0">
      <root>
        <mxCell id="0" />
        <mxCell id="1" parent="0" />
        <mxCell id="AE5bCb40bvg2pX3ZLgfV-2" value="{2}" style="ellipse;whiteSpace=wrap;html=1;aspect=fixed;fontSize=18;" parent="1" vertex="1">
          <mxGeometry x="320" y="600" width="80" height="80" as="geometry" />
        </mxCell>
        <mxCell id="AE5bCb40bvg2pX3ZLgfV-3" value="{1,3,4}" style="ellipse;whiteSpace=wrap;html=1;aspect=fixed;fontSize=18;" parent="1" vertex="1">
          <mxGeometry x="80" y="600" width="80" height="80" as="geometry" />
        </mxCell>
        <mxCell id="AE5bCb40bvg2pX3ZLgfV-4" value="{1,2,3,4}" style="ellipse;whiteSpace=wrap;html=1;aspect=fixed;fontSize=18;" parent="1" vertex="1">
          <mxGeometry x="200" y="720" width="80" height="80" as="geometry" />
        </mxCell>
        <mxCell id="AE5bCb40bvg2pX3ZLgfV-5" value="{1,4}" style="ellipse;whiteSpace=wrap;html=1;aspect=fixed;fontSize=18;" parent="1" vertex="1">
          <mxGeometry x="200" y="480" width="80" height="80" as="geometry" />
        </mxCell>
        <mxCell id="AE5bCb40bvg2pX3ZLgfV-6" value="{1,2,4}" style="ellipse;whiteSpace=wrap;html=1;aspect=fixed;fontSize=18;" parent="1" vertex="1">
          <mxGeometry x="-40" y="720" width="80" height="80" as="geometry" />
        </mxCell>
        <mxCell id="AE5bCb40bvg2pX3ZLgfV-10" value="" style="ellipse;whiteSpace=wrap;html=1;aspect=fixed;fontSize=18;" parent="1" vertex="1">
          <mxGeometry x="440" y="720" width="80" height="80" as="geometry" />
        </mxCell>
        <mxCell id="AE5bCb40bvg2pX3ZLgfV-11" value="&lt;p style=&quot;line-height: 100%; margin-bottom: 0cm; font-size: 18px;&quot;&gt;{âˆ…}&lt;/p&gt;&lt;p style=&quot;line-height: 100%; margin-bottom: 0cm; font-size: 18px;&quot;&gt;&lt;/p&gt;" style="text;html=1;align=center;verticalAlign=middle;whiteSpace=wrap;rounded=0;fontSize=18;" parent="1" vertex="1">
          <mxGeometry x="450" y="745" width="60" height="30" as="geometry" />
        </mxCell>
        <mxCell id="AE5bCb40bvg2pX3ZLgfV-12" value="b" style="endArrow=classic;html=1;rounded=0;exitX=1;exitY=1;exitDx=0;exitDy=0;entryX=0;entryY=0;entryDx=0;entryDy=0;fontSize=18;" parent="1" source="AE5bCb40bvg2pX3ZLgfV-2" target="AE5bCb40bvg2pX3ZLgfV-10" edge="1">
          <mxGeometry width="50" height="50" relative="1" as="geometry">
            <mxPoint x="450" y="450" as="sourcePoint" />
            <mxPoint x="500" y="400" as="targetPoint" />
            <Array as="points">
              <mxPoint x="420" y="700" />
            </Array>
          </mxGeometry>
        </mxCell>
        <mxCell id="AE5bCb40bvg2pX3ZLgfV-14" value="a" style="endArrow=classic;html=1;rounded=0;exitX=1;exitY=1;exitDx=0;exitDy=0;entryX=0;entryY=0;entryDx=0;entryDy=0;fontSize=18;" parent="1" source="AE5bCb40bvg2pX3ZLgfV-5" target="AE5bCb40bvg2pX3ZLgfV-2" edge="1">
          <mxGeometry width="50" height="50" relative="1" as="geometry">
            <mxPoint x="170" y="660" as="sourcePoint" />
            <mxPoint x="220" y="610" as="targetPoint" />
          </mxGeometry>
        </mxCell>
        <mxCell id="AE5bCb40bvg2pX3ZLgfV-15" value="b" style="endArrow=classic;html=1;rounded=0;exitX=0;exitY=1;exitDx=0;exitDy=0;entryX=1;entryY=0;entryDx=0;entryDy=0;fontSize=18;" parent="1" source="AE5bCb40bvg2pX3ZLgfV-5" target="AE5bCb40bvg2pX3ZLgfV-3" edge="1">
          <mxGeometry width="50" height="50" relative="1" as="geometry">
            <mxPoint x="170" y="660" as="sourcePoint" />
            <mxPoint x="220" y="610" as="targetPoint" />
          </mxGeometry>
        </mxCell>
        <mxCell id="AE5bCb40bvg2pX3ZLgfV-16" value="a" style="endArrow=classic;html=1;rounded=0;entryX=0;entryY=0;entryDx=0;entryDy=0;exitX=1;exitY=1;exitDx=0;exitDy=0;fontSize=18;" parent="1" source="AE5bCb40bvg2pX3ZLgfV-3" target="AE5bCb40bvg2pX3ZLgfV-4" edge="1">
          <mxGeometry width="50" height="50" relative="1" as="geometry">
            <mxPoint x="170" y="660" as="sourcePoint" />
            <mxPoint x="220" y="610" as="targetPoint" />
          </mxGeometry>
        </mxCell>
        <mxCell id="AE5bCb40bvg2pX3ZLgfV-17" value="b" style="endArrow=classic;html=1;rounded=0;exitX=0;exitY=1;exitDx=0;exitDy=0;entryX=1;entryY=0;entryDx=0;entryDy=0;curved=1;fontSize=18;" parent="1" source="AE5bCb40bvg2pX3ZLgfV-3" target="AE5bCb40bvg2pX3ZLgfV-6" edge="1">
          <mxGeometry width="50" height="50" relative="1" as="geometry">
            <mxPoint x="170" y="660" as="sourcePoint" />
            <mxPoint x="220" y="610" as="targetPoint" />
            <Array as="points">
              <mxPoint x="80" y="720" />
            </Array>
          </mxGeometry>
        </mxCell>
        <mxCell id="AE5bCb40bvg2pX3ZLgfV-18" value="b" style="endArrow=classic;html=1;rounded=0;exitX=1;exitY=0;exitDx=0;exitDy=0;entryX=0;entryY=1;entryDx=0;entryDy=0;curved=1;fontSize=18;" parent="1" source="AE5bCb40bvg2pX3ZLgfV-6" target="AE5bCb40bvg2pX3ZLgfV-3" edge="1">
          <mxGeometry width="50" height="50" relative="1" as="geometry">
            <mxPoint x="170" y="660" as="sourcePoint" />
            <mxPoint x="220" y="610" as="targetPoint" />
            <Array as="points">
              <mxPoint x="40" y="680" />
            </Array>
          </mxGeometry>
        </mxCell>
        <mxCell id="AE5bCb40bvg2pX3ZLgfV-19" value="a" style="endArrow=classic;html=1;rounded=0;exitX=0;exitY=0.5;exitDx=0;exitDy=0;entryX=1;entryY=0.5;entryDx=0;entryDy=0;fontSize=18;" parent="1" source="AE5bCb40bvg2pX3ZLgfV-2" target="AE5bCb40bvg2pX3ZLgfV-3" edge="1">
          <mxGeometry width="50" height="50" relative="1" as="geometry">
            <mxPoint x="290" y="639.66" as="sourcePoint" />
            <mxPoint x="220" y="620" as="targetPoint" />
          </mxGeometry>
        </mxCell>
        <mxCell id="AE5bCb40bvg2pX3ZLgfV-20" value="a,b" style="endArrow=classic;html=1;rounded=0;entryX=1;entryY=1;entryDx=0;entryDy=0;exitX=0;exitY=1;exitDx=0;exitDy=0;curved=1;fontSize=18;" parent="1" source="AE5bCb40bvg2pX3ZLgfV-4" target="AE5bCb40bvg2pX3ZLgfV-4" edge="1">
          <mxGeometry width="50" height="50" relative="1" as="geometry">
            <mxPoint x="150" y="700" as="sourcePoint" />
            <mxPoint x="90" y="840" as="targetPoint" />
            <Array as="points">
              <mxPoint x="200" y="860" />
              <mxPoint x="280" y="860" />
            </Array>
          </mxGeometry>
        </mxCell>
        <mxCell id="AE5bCb40bvg2pX3ZLgfV-21" value="" style="endArrow=classic;html=1;rounded=0;" parent="1" target="AE5bCb40bvg2pX3ZLgfV-5" edge="1">
          <mxGeometry width="50" height="50" relative="1" as="geometry">
            <mxPoint x="240" y="440" as="sourcePoint" />
            <mxPoint x="170" y="600" as="targetPoint" />
          </mxGeometry>
        </mxCell>
        <mxCell id="AE5bCb40bvg2pX3ZLgfV-22" value="" style="ellipse;whiteSpace=wrap;html=1;aspect=fixed;fillColor=none;" parent="1" vertex="1">
          <mxGeometry x="204" y="484" width="72" height="72" as="geometry" />
        </mxCell>
        <mxCell id="AE5bCb40bvg2pX3ZLgfV-23" value="" style="ellipse;whiteSpace=wrap;html=1;aspect=fixed;fillColor=none;" parent="1" vertex="1">
          <mxGeometry x="84" y="604" width="72" height="72" as="geometry" />
        </mxCell>
        <mxCell id="AE5bCb40bvg2pX3ZLgfV-25" value="" style="ellipse;whiteSpace=wrap;html=1;aspect=fixed;fillColor=none;" parent="1" vertex="1">
          <mxGeometry x="204" y="724" width="72" height="72" as="geometry" />
        </mxCell>
        <mxCell id="AE5bCb40bvg2pX3ZLgfV-26" value="a,b" style="endArrow=classic;html=1;rounded=0;entryX=1;entryY=1;entryDx=0;entryDy=0;exitX=0;exitY=1;exitDx=0;exitDy=0;curved=1;fontSize=18;" parent="1" source="AE5bCb40bvg2pX3ZLgfV-10" target="AE5bCb40bvg2pX3ZLgfV-10" edge="1">
          <mxGeometry width="50" height="50" relative="1" as="geometry">
            <mxPoint x="452" y="790" as="sourcePoint" />
            <mxPoint x="508" y="790" as="targetPoint" />
            <Array as="points">
              <mxPoint x="440" y="862" />
              <mxPoint x="520" y="862" />
            </Array>
          </mxGeometry>
        </mxCell>
        <mxCell id="AE5bCb40bvg2pX3ZLgfV-27" value="a" style="endArrow=classic;html=1;rounded=0;entryX=0;entryY=0.5;entryDx=0;entryDy=0;exitX=1;exitY=0.5;exitDx=0;exitDy=0;fontSize=18;" parent="1" source="AE5bCb40bvg2pX3ZLgfV-6" target="AE5bCb40bvg2pX3ZLgfV-4" edge="1">
          <mxGeometry width="50" height="50" relative="1" as="geometry">
            <mxPoint x="130" y="670" as="sourcePoint" />
            <mxPoint x="180" y="620" as="targetPoint" />
          </mxGeometry>
        </mxCell>
        <mxCell id="cWBfydRSBv3sAKZXCXzx-1" value="" style="ellipse;whiteSpace=wrap;html=1;aspect=fixed;fillColor=none;" vertex="1" parent="1">
          <mxGeometry x="-36" y="724" width="72" height="72" as="geometry" />
        </mxCell>
      </root>
    </mxGraphModel>
  </diagram>
</mxfile>
